<?xml version="1.0" encoding="utf-8"?>
<!-- Generator: Adobe Illustrator 22.0.1, SVG Export Plug-In . SVG Version: 6.00 Build 0)  -->
<svg version="1.1" id="Capa_1" xmlns="http://www.w3.org/2000/svg" xmlns:xlink="http://www.w3.org/1999/xlink" x="0px" y="0px"
	 viewBox="0 0 500 500" style="enable-background:new 0 0 500 500;" xml:space="preserve">
<style type="text/css">
	.st0{fill:#FFFFFF;}
	.st1{fill:#FFFFFF;stroke:#FFFFFF;stroke-width:11;stroke-miterlimit:10;}
</style>
<g>
	<path class="st0" d="M255.5,101c37,0,71.8,14.4,97.9,40.6c26.2,26.2,40.6,60.9,40.6,97.9s-14.4,71.8-40.6,97.9
		c-26.2,26.2-60.9,40.6-97.9,40.6s-71.8-14.4-97.9-40.6c-26.2-26.2-40.6-60.9-40.6-97.9s14.4-71.8,40.6-97.9
		C183.7,115.4,218.5,101,255.5,101 M255.5,85C170.2,85,101,154.2,101,239.5S170.2,394,255.5,394S410,324.8,410,239.5
		S340.8,85,255.5,85L255.5,85z"/>
</g>
<g>
	<path class="st1" d="M176.4,195.9v80.7H166v-80.7H176.4z"/>
	<path class="st1" d="M262.6,241.1c-0.6-11.2-1.3-24.8-1.2-34.8H261c-2.8,9.5-6.1,19.5-10.2,30.6l-14.2,39.1h-7.9l-13-38.4
		c-3.8-11.4-7.1-21.8-9.3-31.4h-0.2c-0.2,10.1-0.8,23.6-1.6,35.7l-2.2,34.6h-9.9l5.6-80.7h13.3l13.8,39c3.4,9.9,6.1,18.8,8.1,27.2
		h0.4c2-8.1,4.9-17,8.5-27.2l14.4-39h13.3l5,80.7h-10.2L262.6,241.1z"/>
	<path class="st1" d="M290.8,197c6.3-1,13.9-1.7,22.1-1.7c15,0,25.6,3.5,32.7,10.1c7.2,6.6,11.4,15.9,11.4,29
		c0,13.2-4.1,23.9-11.6,31.4c-7.5,7.5-20,11.6-35.7,11.6c-7.4,0-13.6-0.4-18.9-1V197z M301.2,268.3c2.6,0.5,6.5,0.6,10.5,0.6
		c22.3,0,34.3-12.4,34.3-34.2c0.1-19-10.7-31.1-32.7-31.1c-5.4,0-9.5,0.5-12.2,1.1V268.3z"/>
</g>
</svg>
